<svg xmlns="http://www.w3.org/2000/svg" viewBox="0 0 48 48" fill="none">
  <!-- House body -->
  <rect x="10" y="24" width="28" height="20" rx="2" fill="#1e3a5f"/>
  <!-- Roof -->
  <path d="M4 26L24 8L44 26" stroke="#1e3a5f" stroke-width="4" stroke-linecap="round" stroke-linejoin="round" fill="none"/>
  <!-- Roof fill -->
  <path d="M10 26L24 13L38 26V24L24 11L10 24V26Z" fill="#1e3a5f"/>
  <!-- Door -->
  <rect x="20" y="32" width="8" height="12" rx="1" fill="white"/>
  <!-- Door knob -->
  <circle cx="26" cy="39" r="1" fill="#1e3a5f"/>
  <!-- Window left -->
  <rect x="14" y="28" width="5" height="5" rx="0.5" fill="white" opacity="0.9"/>
  <!-- Window right -->
  <rect x="29" y="28" width="5" height="5" rx="0.5" fill="white" opacity="0.9"/>
  <!-- Arrow swoosh (red) -->
  <path d="M8 40 Q18 48 38 32" stroke="#dc2626" stroke-width="3" stroke-linecap="round" fill="none"/>
  <path d="M36 28L38 32L34 33" fill="#dc2626"/>
  <!-- Small flag stripes -->
  <rect x="32" y="8" width="12" height="2" fill="#dc2626"/>
  <rect x="32" y="12" width="12" height="2" fill="#dc2626"/>
  <rect x="32" y="10" width="12" height="2" fill="white"/>
  <rect x="32" y="6" width="5" height="4" fill="#1e3a5f"/>
  <!-- Stars on flag -->
  <circle cx="33.5" cy="7" r="0.5" fill="white"/>
  <circle cx="35.5" cy="7" r="0.5" fill="white"/>
  <circle cx="33.5" cy="9" r="0.5" fill="white"/>
  <circle cx="35.5" cy="9" r="0.5" fill="white"/>
</svg>
