<svg xmlns="http://www.w3.org/2000/svg" viewBox="0 0 280 48" fill="none">
  <!-- House body -->
  <rect x="6" y="22" width="24" height="18" rx="2" fill="#1e3a5f"/>
  <!-- Roof -->
  <path d="M2 24L18 8L34 24" stroke="#1e3a5f" stroke-width="3.5" stroke-linecap="round" stroke-linejoin="round" fill="none"/>
  <!-- Roof fill -->
  <path d="M6 24L18 13L30 24V22L18 11L6 22V24Z" fill="#1e3a5f"/>
  <!-- Door -->
  <rect x="15" y="30" width="6" height="10" rx="1" fill="white"/>
  <!-- Door knob -->
  <circle cx="19.5" cy="36" r="0.8" fill="#1e3a5f"/>
  <!-- Window left -->
  <rect x="9" y="26" width="4.5" height="4.5" rx="0.5" fill="white" opacity="0.9"/>
  <!-- Window right -->
  <rect x="22.5" y="26" width="4.5" height="4.5" rx="0.5" fill="white" opacity="0.9"/>
  <!-- Arrow swoosh (red) -->
  <path d="M5 38 Q14 44 30 30" stroke="#dc2626" stroke-width="2.5" stroke-linecap="round" fill="none"/>
  <path d="M28 27L30 30L27 31" fill="#dc2626"/>
  <!-- Small flag -->
  <rect x="26" y="8" width="10" height="1.5" fill="#dc2626"/>
  <rect x="26" y="11" width="10" height="1.5" fill="#dc2626"/>
  <rect x="26" y="9.5" width="10" height="1.5" fill="white"/>
  <rect x="26" y="6.5" width="4" height="3" fill="#1e3a5f"/>
  <circle cx="27.2" cy="7.3" r="0.4" fill="white"/>
  <circle cx="28.8" cy="7.3" r="0.4" fill="white"/>
  <circle cx="27.2" cy="8.7" r="0.4" fill="white"/>
  <circle cx="28.8" cy="8.7" r="0.4" fill="white"/>
  <!-- Text: Quick Home Offer -->
  <text x="42" y="28" font-family="Inter, system-ui, -apple-system, sans-serif" font-size="16" font-weight="700" fill="#1e3a5f">Quick Home Offer</text>
  <!-- Text: USA -->
  <text x="42" y="43" font-family="Inter, system-ui, -apple-system, sans-serif" font-size="14" font-weight="800" fill="#dc2626" letter-spacing="3">USA</text>
</svg>
